<?xml version="1.0" encoding="UTF-8"?>
<svg version="1.1" xmlns="http://www.w3.org/2000/svg" width="700" height="700">
<path d="M0 0 C165 0 330 0 500 0 C500 33 500 66 500 100 C368 100 236 100 100 100 C100 133 100 166 100 200 C199 200 298 200 400 200 C400 233 400 266 400 300 C301 300 202 300 100 300 C100 333 100 366 100 400 C232 400 364 400 500 400 C500 433 500 466 500 500 C335 500 170 500 0 500 C0 335 0 170 0 0 Z " fill="#FFFFFF" transform="translate(200,0)"/>
<path d="M0 0 C33 0 66 0 100 0 C100 198 100 396 100 600 C298 600 496 600 700 600 C700 633 700 666 700 700 C469 700 238 700 0 700 C0 469 0 238 0 0 Z " fill="#FFFFFF" transform="translate(0,0)"/>
</svg>
