<?xml version="1.0" encoding="UTF-8"?>
<svg version="1.1" xmlns="http://www.w3.org/2000/svg" width="1023" height="1023">
<path d="M0 0 C153.45 0 306.9 0 465 0 C465 30.69 465 61.38 465 93 C342.24 93 219.48 93 93 93 C93 123.69 93 154.38 93 186 C185.07 186 277.14 186 372 186 C372 216.69 372 247.38 372 279 C279.93 279 187.86 279 93 279 C93 309.69 93 340.38 93 372 C215.76 372 338.52 372 465 372 C465 402.69 465 433.38 465 465 C311.55 465 158.1 465 0 465 C0 311.55 0 158.1 0 0 Z " fill="#BF00FF" transform="translate(372,186)"/>
<path d="M0 0 C30.69 0 61.38 0 93 0 C93 184.14 93 368.28 93 558 C277.14 558 461.28 558 651 558 C651 588.69 651 619.38 651 651 C436.17 651 221.34 651 0 651 C0 436.17 0 221.34 0 0 Z " fill="#BF00FF" transform="translate(186,186)"/>
</svg>
